PathFileType	4	(X/Y/Z)	./resultDataOpenSim/trcMotMarkerGrf/sub10/qtm-01-04.trc
DataRate	CameraRate	NumFrames	NumMarkers	Units	OrigDataRate	OrigDataStartFrame	OrigNumFrames
250.000000	250.000000	5	24	m	250.000000	176	467
Frame#	Time	L.Toe.Tip			R.Toe.Tip			L.Ankle.Lat			R.Ankle.Lat			L.Ankle.Med			R.Ankle.Med			L.Heel			R.Heel			L.Knee.Lat			R.Knee.Lat			L.Knee.Med			R.Knee.Med			L.Thigh.Upper			R.Thigh.Upper			L.ASIS			R.ASIS			V.Sacral			L.Acromium			R.Acromium			C7			L.Elbow			R.Elbow			L.Wrist.Lat			R.Wrist.Lat
		X1	Y1	Z1	X2	Y2	Z2	X3	Y3	Z3	X4	Y4	Z4	X5	Y5	Z5	X6	Y6	Z6	X7	Y7	Z7	X8	Y8	Z8	X9	Y9	Z9	X10	Y10	Z10	X11	Y11	Z11	X12	Y12	Z12	X13	Y13	Z13	X14	Y14	Z14	X15	Y15	Z15	X16	Y16	Z16	X17	Y17	Z17	X18	Y18	Z18	X19	Y19	Z19	X20	Y20	Z20	X21	Y21	Z21	X22	Y22	Z22	X23	Y23	Z23	X24	Y24	Z24

176	0.7	0.044354161	0.045311858	-0.10730857	-0.70515496	0.041292235	-0.006534897	-0.089168575	0.065992474	-0.14317169	-0.74447897	0.17602399	0.0387002	-0.087813049	0.08965563	-0.060004931	-0.69703176	0.16189639	-0.033603167	-0.15534772	0.035009292	-0.10301174	-0.77822984	0.20474801	-0.016215681	-0.10649724	0.4548338	-0.18309487	-0.43189516	0.41746302	0.070349054	-0.096994993	0.44052769	-0.062090695	-0.38579003	0.39051965	-0.047541244	-0.23701079	0.81664911	-0.2545726	-0.35627958	0.80360518	0.11762748	-0.2147459	0.91722931	-0.17182389	-0.25650719	0.8940226	0.063853922	-0.44087196	0.9233997	-0.087827468	-0.31529046	1.3792858	-0.23080304	-0.32260253	1.3655852	0.093481836	-0.40287335	1.4002812	-0.073214277	-0.4682346	1.0798552	-0.26444274	-0.31750838	1.014976	0.18504196	-0.45003934	0.84248555	-0.30373566	-0.078536594	0.93314266	0.17356395
177	0.704	0.044861358	0.044781531	-0.1068334	-0.7005969	0.043869692	-0.0064507146	-0.088766223	0.06584313	-0.14293687	-0.73417344	0.18004315	0.040036988	-0.087470282	0.089406798	-0.059821578	-0.68710957	0.16497778	-0.032552337	-0.15522565	0.035151384	-0.10298743	-0.76759583	0.21116568	-0.013125956	-0.10308903	0.45447695	-0.18358597	-0.41964321	0.41625159	0.071384484	-0.093023577	0.4401153	-0.062469546	-0.3714997	0.38760713	-0.046315785	-0.2313436	0.81726817	-0.2553267	-0.3481508	0.80300013	0.11728467	-0.20833325	0.9183312	-0.17267884	-0.24906006	0.89433616	0.06240726	-0.43401746	0.92411601	-0.088028746	-0.30813904	1.3801285	-0.23107085	-0.31637147	1.3662686	0.093030849	-0.39637683	1.400731	-0.073777631	-0.4606355	1.0805625	-0.26532796	-0.3136829	1.0154612	0.18415141	-0.44152773	0.84304759	-0.30416591	-0.075036126	0.93209819	0.1736531
178	0.708	0.045278817	0.044341662	-0.1065142	-0.69541677	0.046704294	-0.0063386383	-0.088416109	0.065700814	-0.14273038	-0.72359765	0.18415534	0.041263727	-0.087140342	0.089177523	-0.059668792	-0.67703484	0.16838789	-0.031699319	-0.15516176	0.035290449	-0.1029227	-0.7563596	0.21737807	-0.010634184	-0.099765711	0.45413664	-0.18401431	-0.40741053	0.41499481	0.072444298	-0.089566893	0.43957721	-0.062777266	-0.35714606	0.38484758	-0.045209784	-0.22583361	0.81784167	-0.25613229	-0.3396163	0.80236526	0.11638487	-0.20199224	0.91939334	-0.17353949	-0.24170937	0.89464784	0.061010617	-0.42731367	0.92499605	-0.087633489	-0.30104958	1.3809497	-0.23135685	-0.3101211	1.3669369	0.092656265	-0.39010497	1.4012602	-0.074413398	-0.45311148	1.0812633	-0.26664913	-0.30988875	1.0159312	0.18324636	-0.43286612	0.84355286	-0.30461392	-0.071594693	0.93096458	0.17377209
179	0.712	0.045604217	0.043976647	-0.10635464	-0.68944869	0.049733216	-0.0061522029	-0.088140671	0.065581354	-0.1425866	-0.71272815	0.18831519	0.042389461	-0.086955155	0.088954175	-0.059638787	-0.6669495	0.17219968	-0.031221412	-0.15510886	0.035383336	-0.1028604	-0.74451693	0.22315254	-0.0090178144	-0.096437753	0.45380691	-0.18436968	-0.39517808	0.41374217	0.073516963	-0.086637033	0.43894157	-0.063080221	-0.34280762	0.38243444	-0.044219067	-0.22049463	0.81841504	-0.25699773	-0.33080744	0.80174291	0.11504794	-0.19576975	0.92039991	-0.17443496	-0.23445918	0.89498402	0.059689764	-0.42071607	0.92588193	-0.087097575	-0.29398388	1.3817604	-0.23165572	-0.30385563	1.3675912	0.092351932	-0.38400666	1.401866	-0.075105237	-0.44567847	1.0819131	-0.26807654	-0.30611332	1.0163938	0.18232982	-0.42405051	0.84401389	-0.3050803	-0.068212681	0.92974235	0.17392381
180	0.716	0.045856513	0.043670827	-0.106282	-0.68246314	0.052949016	-0.0057852203	-0.087936725	0.065484955	-0.14251529	-0.70156515	0.19246742	0.043403913	-0.086881209	0.088760317	-0.059688276	-0.65683397	0.1762884	-0.031076021	-0.15502177	0.035404484	-0.10284477	-0.73239178	0.22837397	-0.008103999	-0.093048712	0.45349015	-0.18466	-0.3829565	0.41252454	0.074576625	-0.084090059	0.4382506	-0.063375339	-0.32860443	0.3805566	-0.043371338	-0.2153214	0.81902549	-0.25791542	-0.32211434	0.80116912	0.11372424	-0.18967855	0.92134291	-0.17539442	-0.22731374	0.8953631	0.058460192	-0.41429848	0.92673549	-0.086554216	-0.28691664	1.3825728	-0.2319558	-0.29758253	1.3682381	0.092096696	-0.37794273	1.4025126	-0.075797339	-0.43825441	1.0824778	-0.26933152	-0.30234509	1.0168629	0.18140915	-0.41507188	0.8444409	-0.3055729	-0.064892493	0.92843307	0.17411193
